<svg xmlns="http://www.w3.org/2000/svg" viewBox="0 0 80 80">
  <g fill="none" fill-rule="evenodd">
    <path d="M40 0C17.909 0 0 17.909 0 40s17.909 40 40 40 40-17.909 40-40S62.091 0 40 0" fill="#F58536"/>
    <path d="M55.88 26.462c0-.927-.748-1.68-1.668-1.68H25.79c-.921 0-1.668.753-1.668 1.68v7.563h31.758v-7.563z" fill="#FFFFFF"/>
    <path d="M24.122 34.025v19.513c0 .927.747 1.68 1.668 1.68h28.422c.92 0 1.668-.753 1.668-1.68V34.025H24.122z" fill="#FFFFFF"/>
    <path d="M31.5 38.5h17a1 1 0 0 1 0 2h-17a1 1 0 0 1 0-2zm0 5h11a1 1 0 0 1 0 2h-11a1 1 0 0 1 0-2zm0 5h14a1 1 0 0 1 0 2h-14a1 1 0 0 1 0-2z" fill="#F58536"/>
    <path d="M29 28a2 2 0 1 1 0 4 2 2 0 0 1 0-4zm6 0a2 2 0 1 1 0 4 2 2 0 0 1 0-4z" fill="#F58536"/>
  </g>
</svg>
